<?xml version="1.0" encoding="UTF-8" standalone="no"?>
<!DOCTYPE svg PUBLIC "-//W3C//DTD SVG 1.1//EN"
 "http://www.w3.org/Graphics/SVG/1.1/DTD/svg11.dtd">
<!-- Generated by graphviz version 4.0.0 (0)
 -->
<!-- Pages: 1 -->
<svg width="2131pt" height="1412pt"
 viewBox="0.00 0.00 2130.50 1412.00" xmlns="http://www.w3.org/2000/svg" xmlns:xlink="http://www.w3.org/1999/xlink">
<g id="graph0" class="graph" transform="scale(1 1) rotate(0) translate(4 1408)">
<polygon fill="white" stroke="transparent" points="-4,4 -4,-1408 2126.5,-1408 2126.5,4 -4,4"/>
<!-- &#45;1474643449567086999 -->
<g id="node1" class="node">
<title>&#45;1474643449567086999</title>
<polygon fill="none" stroke="black" points="803.5,-1404 321.5,-1404 321.5,-1368 803.5,-1368 803.5,-1404"/>
<text text-anchor="middle" x="562.5" y="-1381" font-family="Helvetica,sans-Serif" font-size="20.00">Projection(Loc, [&#39;pickup_latitude&#39;, &#39;pickup_longitude&#39;])</text>
</g>
<!-- 5636734806032912181 -->
<g id="node2" class="node">
<title>5636734806032912181</title>
<polygon fill="none" stroke="black" points="632.5,-1332 492.5,-1332 492.5,-1296 632.5,-1296 632.5,-1332"/>
<text text-anchor="middle" x="562.5" y="-1309" font-family="Helvetica,sans-Serif" font-size="20.00">Loc(Loc, And)</text>
</g>
<!-- 5636734806032912181&#45;&gt;&#45;1474643449567086999 -->
<g id="edge1" class="edge">
<title>5636734806032912181&#45;&gt;&#45;1474643449567086999</title>
<path fill="none" stroke="black" d="M562.5,-1332.3C562.5,-1340.02 562.5,-1349.29 562.5,-1357.89"/>
<polygon fill="black" stroke="black" points="559,-1357.9 562.5,-1367.9 566,-1357.9 559,-1357.9"/>
</g>
<!-- &#45;7505496213758287403 -->
<g id="node3" class="node">
<title>&#45;7505496213758287403</title>
<polygon fill="none" stroke="black" points="762,-1260 529,-1260 529,-1224 762,-1224 762,-1260"/>
<text text-anchor="middle" x="645.5" y="-1237" font-family="Helvetica,sans-Serif" font-size="20.00">And(Between, Between)</text>
</g>
<!-- &#45;7505496213758287403&#45;&gt;5636734806032912181 -->
<g id="edge3" class="edge">
<title>&#45;7505496213758287403&#45;&gt;5636734806032912181</title>
<path fill="none" stroke="black" d="M624.98,-1260.3C614.63,-1269.03 601.91,-1279.76 590.66,-1289.25"/>
<polygon fill="black" stroke="black" points="588.17,-1286.77 582.78,-1295.9 592.68,-1292.12 588.17,-1286.77"/>
</g>
<!-- 5422039967322959912 -->
<g id="node4" class="node">
<title>5422039967322959912</title>
<polygon fill="none" stroke="black" points="744,-1188 547,-1188 547,-1152 744,-1152 744,-1188"/>
<text text-anchor="middle" x="645.5" y="-1165" font-family="Helvetica,sans-Serif" font-size="20.00">Between(Projection)</text>
</g>
<!-- 5422039967322959912&#45;&gt;&#45;7505496213758287403 -->
<g id="edge4" class="edge">
<title>5422039967322959912&#45;&gt;&#45;7505496213758287403</title>
<path fill="none" stroke="black" d="M645.5,-1188.3C645.5,-1196.02 645.5,-1205.29 645.5,-1213.89"/>
<polygon fill="black" stroke="black" points="642,-1213.9 645.5,-1223.9 649,-1213.9 642,-1213.9"/>
</g>
<!-- 2079933701494982553 -->
<g id="node5" class="node">
<title>2079933701494982553</title>
<polygon fill="none" stroke="black" points="783,-1116 508,-1116 508,-1080 783,-1080 783,-1116"/>
<text text-anchor="middle" x="645.5" y="-1093" font-family="Helvetica,sans-Serif" font-size="20.00">Projection(Loc, trip_distance)</text>
</g>
<!-- 2079933701494982553&#45;&gt;5422039967322959912 -->
<g id="edge6" class="edge">
<title>2079933701494982553&#45;&gt;5422039967322959912</title>
<path fill="none" stroke="black" d="M645.5,-1116.3C645.5,-1124.02 645.5,-1133.29 645.5,-1141.89"/>
<polygon fill="black" stroke="black" points="642,-1141.9 645.5,-1151.9 649,-1141.9 642,-1141.9"/>
</g>
<!-- &#45;1753380607972379727 -->
<g id="node6" class="node">
<title>&#45;1753380607972379727</title>
<polygon fill="none" stroke="black" points="744,-1044 547,-1044 547,-1008 744,-1008 744,-1044"/>
<text text-anchor="middle" x="645.5" y="-1021" font-family="Helvetica,sans-Serif" font-size="20.00">Loc(Projection, And)</text>
</g>
<!-- &#45;1753380607972379727&#45;&gt;5636734806032912181 -->
<g id="edge2" class="edge">
<title>&#45;1753380607972379727&#45;&gt;5636734806032912181</title>
<path fill="none" stroke="black" d="M546.88,-1043.89C527.89,-1051.76 510.27,-1063.24 498.5,-1080 477.35,-1110.11 464.29,-1134.09 519.5,-1260 523.97,-1270.2 530.95,-1280.05 538,-1288.44"/>
<polygon fill="black" stroke="black" points="535.45,-1290.83 544.7,-1295.99 540.68,-1286.19 535.45,-1290.83"/>
</g>
<!-- &#45;1753380607972379727&#45;&gt;2079933701494982553 -->
<g id="edge7" class="edge">
<title>&#45;1753380607972379727&#45;&gt;2079933701494982553</title>
<path fill="none" stroke="black" d="M645.5,-1044.3C645.5,-1052.02 645.5,-1061.29 645.5,-1069.89"/>
<polygon fill="black" stroke="black" points="642,-1069.9 645.5,-1079.9 649,-1069.9 642,-1069.9"/>
</g>
<!-- &#45;5783607712576403818 -->
<g id="node40" class="node">
<title>&#45;5783607712576403818</title>
<polygon fill="none" stroke="black" points="1076,-1116 801,-1116 801,-1080 1076,-1080 1076,-1116"/>
<text text-anchor="middle" x="938.5" y="-1093" font-family="Helvetica,sans-Serif" font-size="20.00">Projection(Loc, fare_amount)</text>
</g>
<!-- &#45;1753380607972379727&#45;&gt;&#45;5783607712576403818 -->
<g id="edge49" class="edge">
<title>&#45;1753380607972379727&#45;&gt;&#45;5783607712576403818</title>
<path fill="none" stroke="black" d="M716.8,-1044.03C759.24,-1054.17 813.24,-1067.07 857.31,-1077.6"/>
<polygon fill="black" stroke="black" points="856.59,-1081.03 867.13,-1079.95 858.22,-1074.22 856.59,-1081.03"/>
</g>
<!-- &#45;9069136742534482121 -->
<g id="node7" class="node">
<title>&#45;9069136742534482121</title>
<polygon fill="none" stroke="black" points="679,-972 488,-972 488,-936 679,-936 679,-972"/>
<text text-anchor="middle" x="583.5" y="-949" font-family="Helvetica,sans-Serif" font-size="20.00">And(And, Between)</text>
</g>
<!-- &#45;9069136742534482121&#45;&gt;&#45;1753380607972379727 -->
<g id="edge9" class="edge">
<title>&#45;9069136742534482121&#45;&gt;&#45;1753380607972379727</title>
<path fill="none" stroke="black" d="M598.83,-972.3C606.26,-980.7 615.32,-990.93 623.48,-1000.14"/>
<polygon fill="black" stroke="black" points="621.1,-1002.73 630.35,-1007.9 626.34,-998.09 621.1,-1002.73"/>
</g>
<!-- &#45;1457958179800336287 -->
<g id="node8" class="node">
<title>&#45;1457958179800336287</title>
<polygon fill="none" stroke="black" points="433,-900 236,-900 236,-864 433,-864 433,-900"/>
<text text-anchor="middle" x="334.5" y="-877" font-family="Helvetica,sans-Serif" font-size="20.00">Between(Projection)</text>
</g>
<!-- &#45;1457958179800336287&#45;&gt;&#45;9069136742534482121 -->
<g id="edge10" class="edge">
<title>&#45;1457958179800336287&#45;&gt;&#45;9069136742534482121</title>
<path fill="none" stroke="black" d="M395.09,-900.03C430.64,-910.03 475.72,-922.7 512.88,-933.15"/>
<polygon fill="black" stroke="black" points="512.06,-936.55 522.63,-935.89 513.95,-929.81 512.06,-936.55"/>
</g>
<!-- &#45;7627762775168569529 -->
<g id="node9" class="node">
<title>&#45;7627762775168569529</title>
<polygon fill="none" stroke="black" points="317,-684 0,-684 0,-648 317,-648 317,-684"/>
<text text-anchor="middle" x="158.5" y="-661" font-family="Helvetica,sans-Serif" font-size="20.00">Projection(Loc, dropoff_longitude)</text>
</g>
<!-- &#45;7627762775168569529&#45;&gt;&#45;1457958179800336287 -->
<g id="edge12" class="edge">
<title>&#45;7627762775168569529&#45;&gt;&#45;1457958179800336287</title>
<path fill="none" stroke="black" d="M172.61,-684.15C203.56,-721.79 277.59,-811.8 313.82,-855.85"/>
<polygon fill="black" stroke="black" points="311.27,-858.27 320.33,-863.77 316.68,-853.82 311.27,-858.27"/>
</g>
<!-- 6610490962812543686 -->
<g id="node10" class="node">
<title>6610490962812543686</title>
<polygon fill="none" stroke="black" points="909,-612 712,-612 712,-576 909,-576 909,-612"/>
<text text-anchor="middle" x="810.5" y="-589" font-family="Helvetica,sans-Serif" font-size="20.00">Loc(Projection, And)</text>
</g>
<!-- 6610490962812543686&#45;&gt;&#45;7627762775168569529 -->
<g id="edge13" class="edge">
<title>6610490962812543686&#45;&gt;&#45;7627762775168569529</title>
<path fill="none" stroke="black" d="M711.83,-605.59C610.03,-616.52 449.34,-633.78 327.29,-646.88"/>
<polygon fill="black" stroke="black" points="326.66,-643.43 317.09,-647.97 327.41,-650.39 326.66,-643.43"/>
</g>
<!-- &#45;8503631995537412086 -->
<g id="node32" class="node">
<title>&#45;8503631995537412086</title>
<polygon fill="none" stroke="black" points="635.5,-684 335.5,-684 335.5,-648 635.5,-648 635.5,-684"/>
<text text-anchor="middle" x="485.5" y="-661" font-family="Helvetica,sans-Serif" font-size="20.00">Projection(Loc, dropoff_latitude)</text>
</g>
<!-- 6610490962812543686&#45;&gt;&#45;8503631995537412086 -->
<g id="edge40" class="edge">
<title>6610490962812543686&#45;&gt;&#45;8503631995537412086</title>
<path fill="none" stroke="black" d="M731.41,-612.03C684.04,-622.24 623.69,-635.24 574.63,-645.8"/>
<polygon fill="black" stroke="black" points="573.7,-642.42 564.66,-647.95 575.17,-649.27 573.7,-642.42"/>
</g>
<!-- &#45;3339608063168815235 -->
<g id="node35" class="node">
<title>&#45;3339608063168815235</title>
<polygon fill="none" stroke="black" points="967,-684 654,-684 654,-648 967,-648 967,-684"/>
<text text-anchor="middle" x="810.5" y="-661" font-family="Helvetica,sans-Serif" font-size="20.00">Projection(Loc, pickup_longitude)</text>
</g>
<!-- 6610490962812543686&#45;&gt;&#45;3339608063168815235 -->
<g id="edge44" class="edge">
<title>6610490962812543686&#45;&gt;&#45;3339608063168815235</title>
<path fill="none" stroke="black" d="M810.5,-612.3C810.5,-620.02 810.5,-629.29 810.5,-637.89"/>
<polygon fill="black" stroke="black" points="807,-637.9 810.5,-647.9 814,-637.9 807,-637.9"/>
</g>
<!-- 6927402855711687705 -->
<g id="node37" class="node">
<title>6927402855711687705</title>
<polygon fill="none" stroke="black" points="1281.5,-684 985.5,-684 985.5,-648 1281.5,-648 1281.5,-684"/>
<text text-anchor="middle" x="1133.5" y="-661" font-family="Helvetica,sans-Serif" font-size="20.00">Projection(Loc, pickup_latitude)</text>
</g>
<!-- 6610490962812543686&#45;&gt;6927402855711687705 -->
<g id="edge46" class="edge">
<title>6610490962812543686&#45;&gt;6927402855711687705</title>
<path fill="none" stroke="black" d="M889.1,-612.03C936.18,-622.24 996.16,-635.24 1044.92,-645.8"/>
<polygon fill="black" stroke="black" points="1044.31,-649.25 1054.83,-647.95 1045.79,-642.41 1044.31,-649.25"/>
</g>
<!-- 1267885505605124267 -->
<g id="node38" class="node">
<title>1267885505605124267</title>
<polygon fill="none" stroke="black" points="1926,-828 853,-828 853,-792 1926,-792 1926,-828"/>
<text text-anchor="middle" x="1389.5" y="-805" font-family="Helvetica,sans-Serif" font-size="20.00">Projection(Loc, [&#39;trip_distance&#39;, &#39;pickup_longitude&#39;, &#39;pickup_latitude&#39;, &#39;dropoff_longitude&#39;, &#39;dropoff_latitude&#39;, &#39;fare_amount&#39;])</text>
</g>
<!-- 6610490962812543686&#45;&gt;1267885505605124267 -->
<g id="edge47" class="edge">
<title>6610490962812543686&#45;&gt;1267885505605124267</title>
<path fill="none" stroke="black" d="M909.04,-595.84C1030.71,-598.58 1229.11,-609.1 1290.5,-648 1339.91,-679.3 1368.51,-745.06 1381.32,-782.13"/>
<polygon fill="black" stroke="black" points="1378.05,-783.38 1384.52,-791.77 1384.69,-781.17 1378.05,-783.38"/>
</g>
<!-- 8528174020740278175 -->
<g id="node11" class="node">
<title>8528174020740278175</title>
<polygon fill="none" stroke="black" points="844,-540 653,-540 653,-504 844,-504 844,-540"/>
<text text-anchor="middle" x="748.5" y="-517" font-family="Helvetica,sans-Serif" font-size="20.00">And(And, Between)</text>
</g>
<!-- 8528174020740278175&#45;&gt;6610490962812543686 -->
<g id="edge15" class="edge">
<title>8528174020740278175&#45;&gt;6610490962812543686</title>
<path fill="none" stroke="black" d="M763.83,-540.3C771.26,-548.7 780.32,-558.93 788.48,-568.14"/>
<polygon fill="black" stroke="black" points="786.1,-570.73 795.35,-575.9 791.34,-566.09 786.1,-570.73"/>
</g>
<!-- &#45;7207247009951169578 -->
<g id="node12" class="node">
<title>&#45;7207247009951169578</title>
<polygon fill="none" stroke="black" points="598,-468 401,-468 401,-432 598,-432 598,-468"/>
<text text-anchor="middle" x="499.5" y="-445" font-family="Helvetica,sans-Serif" font-size="20.00">Between(Projection)</text>
</g>
<!-- &#45;7207247009951169578&#45;&gt;8528174020740278175 -->
<g id="edge17" class="edge">
<title>&#45;7207247009951169578&#45;&gt;8528174020740278175</title>
<path fill="none" stroke="black" d="M560.09,-468.03C595.64,-478.03 640.72,-490.7 677.88,-501.15"/>
<polygon fill="black" stroke="black" points="677.06,-504.55 687.63,-503.89 678.95,-497.81 677.06,-504.55"/>
</g>
<!-- &#45;8777837868502468306 -->
<g id="node13" class="node">
<title>&#45;8777837868502468306</title>
<polygon fill="none" stroke="black" points="466.5,-252 118.5,-252 118.5,-216 466.5,-216 466.5,-252"/>
<text text-anchor="middle" x="292.5" y="-229" font-family="Helvetica,sans-Serif" font-size="20.00">Projection(Concat, dropoff_longitude)</text>
</g>
<!-- &#45;8777837868502468306&#45;&gt;&#45;7207247009951169578 -->
<g id="edge18" class="edge">
<title>&#45;8777837868502468306&#45;&gt;&#45;7207247009951169578</title>
<path fill="none" stroke="black" d="M309.09,-252.15C345.65,-289.95 433.29,-380.55 475.7,-424.4"/>
<polygon fill="black" stroke="black" points="473.36,-427.01 482.83,-431.77 478.39,-422.15 473.36,-427.01"/>
</g>
<!-- 572474094947503850 -->
<g id="node14" class="node">
<title>572474094947503850</title>
<polygon fill="none" stroke="black" points="1372,-180 641,-180 641,-144 1372,-144 1372,-180"/>
<text text-anchor="middle" x="1006.5" y="-157" font-family="Helvetica,sans-Serif" font-size="20.00">Concat(ArrowStringConversion, ArrowStringConversion, ArrowStringConversion)</text>
</g>
<!-- 572474094947503850&#45;&gt;&#45;8777837868502468306 -->
<g id="edge19" class="edge">
<title>572474094947503850&#45;&gt;&#45;8777837868502468306</title>
<path fill="none" stroke="black" d="M832.75,-180.03C724.77,-190.62 586.11,-204.21 476.3,-214.98"/>
<polygon fill="black" stroke="black" points="475.71,-211.52 466.1,-215.98 476.39,-218.49 475.71,-211.52"/>
</g>
<!-- &#45;222441322721387894 -->
<g id="node23" class="node">
<title>&#45;222441322721387894</title>
<polygon fill="none" stroke="black" points="816,-252 485,-252 485,-216 816,-216 816,-252"/>
<text text-anchor="middle" x="650.5" y="-229" font-family="Helvetica,sans-Serif" font-size="20.00">Projection(Concat, dropoff_latitude)</text>
</g>
<!-- 572474094947503850&#45;&gt;&#45;222441322721387894 -->
<g id="edge29" class="edge">
<title>572474094947503850&#45;&gt;&#45;222441322721387894</title>
<path fill="none" stroke="black" d="M919.87,-180.03C867.65,-190.3 801.04,-203.4 747.13,-214"/>
<polygon fill="black" stroke="black" points="746.35,-210.59 737.21,-215.95 747.7,-217.45 746.35,-210.59"/>
</g>
<!-- &#45;7579396353947639050 -->
<g id="node26" class="node">
<title>&#45;7579396353947639050</title>
<polygon fill="none" stroke="black" points="1178.5,-252 834.5,-252 834.5,-216 1178.5,-216 1178.5,-252"/>
<text text-anchor="middle" x="1006.5" y="-229" font-family="Helvetica,sans-Serif" font-size="20.00">Projection(Concat, pickup_longitude)</text>
</g>
<!-- 572474094947503850&#45;&gt;&#45;7579396353947639050 -->
<g id="edge33" class="edge">
<title>572474094947503850&#45;&gt;&#45;7579396353947639050</title>
<path fill="none" stroke="black" d="M1006.5,-180.3C1006.5,-188.02 1006.5,-197.29 1006.5,-205.89"/>
<polygon fill="black" stroke="black" points="1003,-205.9 1006.5,-215.9 1010,-205.9 1003,-205.9"/>
</g>
<!-- 270832407015445155 -->
<g id="node28" class="node">
<title>270832407015445155</title>
<polygon fill="none" stroke="black" points="1522.5,-252 1196.5,-252 1196.5,-216 1522.5,-216 1522.5,-252"/>
<text text-anchor="middle" x="1359.5" y="-229" font-family="Helvetica,sans-Serif" font-size="20.00">Projection(Concat, pickup_latitude)</text>
</g>
<!-- 572474094947503850&#45;&gt;270832407015445155 -->
<g id="edge35" class="edge">
<title>572474094947503850&#45;&gt;270832407015445155</title>
<path fill="none" stroke="black" d="M1092.4,-180.03C1144.18,-190.3 1210.23,-203.4 1263.69,-214"/>
<polygon fill="black" stroke="black" points="1263.03,-217.44 1273.52,-215.95 1264.39,-210.57 1263.03,-217.44"/>
</g>
<!-- 4798489896173112382 -->
<g id="node29" class="node">
<title>4798489896173112382</title>
<polygon fill="none" stroke="black" points="2122.5,-396 1018.5,-396 1018.5,-360 2122.5,-360 2122.5,-396"/>
<text text-anchor="middle" x="1570.5" y="-373" font-family="Helvetica,sans-Serif" font-size="20.00">Projection(Concat, [&#39;trip_distance&#39;, &#39;pickup_longitude&#39;, &#39;pickup_latitude&#39;, &#39;dropoff_longitude&#39;, &#39;dropoff_latitude&#39;, &#39;fare_amount&#39;])</text>
</g>
<!-- 572474094947503850&#45;&gt;4798489896173112382 -->
<g id="edge36" class="edge">
<title>572474094947503850&#45;&gt;4798489896173112382</title>
<path fill="none" stroke="black" d="M1319.34,-180.01C1421.36,-188.39 1513.33,-200.16 1531.5,-216 1569.72,-249.31 1573.79,-313.08 1572.63,-349.57"/>
<polygon fill="black" stroke="black" points="1569.11,-349.8 1572.13,-359.95 1576.11,-350.13 1569.11,-349.8"/>
</g>
<!-- &#45;4604728689463470528 -->
<g id="node15" class="node">
<title>&#45;4604728689463470528</title>
<polygon fill="none" stroke="black" points="777.5,-108 355.5,-108 355.5,-72 777.5,-72 777.5,-108"/>
<text text-anchor="middle" x="566.5" y="-85" font-family="Helvetica,sans-Serif" font-size="20.00">ArrowStringConversion(FromMapProjectable)</text>
</g>
<!-- &#45;4604728689463470528&#45;&gt;572474094947503850 -->
<g id="edge20" class="edge">
<title>&#45;4604728689463470528&#45;&gt;572474094947503850</title>
<path fill="none" stroke="black" d="M673.57,-108.03C738.78,-118.41 822.15,-131.67 889.14,-142.33"/>
<polygon fill="black" stroke="black" points="888.9,-145.84 899.33,-143.95 890,-138.92 888.9,-145.84"/>
</g>
<!-- 317803390264667735 -->
<g id="node16" class="node">
<title>317803390264667735</title>
<polygon fill="none" stroke="black" points="668,-36 465,-36 465,0 668,0 668,-36"/>
<text text-anchor="middle" x="566.5" y="-13" font-family="Helvetica,sans-Serif" font-size="20.00">FromMapProjectable</text>
</g>
<!-- 317803390264667735&#45;&gt;&#45;4604728689463470528 -->
<g id="edge23" class="edge">
<title>317803390264667735&#45;&gt;&#45;4604728689463470528</title>
<path fill="none" stroke="black" d="M566.5,-36.3C566.5,-44.02 566.5,-53.29 566.5,-61.89"/>
<polygon fill="black" stroke="black" points="563,-61.9 566.5,-71.9 570,-61.9 563,-61.9"/>
</g>
<!-- &#45;7232136002425492449 -->
<g id="node17" class="node">
<title>&#45;7232136002425492449</title>
<polygon fill="none" stroke="black" points="1217.5,-108 795.5,-108 795.5,-72 1217.5,-72 1217.5,-108"/>
<text text-anchor="middle" x="1006.5" y="-85" font-family="Helvetica,sans-Serif" font-size="20.00">ArrowStringConversion(FromMapProjectable)</text>
</g>
<!-- &#45;7232136002425492449&#45;&gt;572474094947503850 -->
<g id="edge22" class="edge">
<title>&#45;7232136002425492449&#45;&gt;572474094947503850</title>
<path fill="none" stroke="black" d="M1006.5,-108.3C1006.5,-116.02 1006.5,-125.29 1006.5,-133.89"/>
<polygon fill="black" stroke="black" points="1003,-133.9 1006.5,-143.9 1010,-133.9 1003,-133.9"/>
</g>
<!-- 7392063892404983478 -->
<g id="node18" class="node">
<title>7392063892404983478</title>
<polygon fill="none" stroke="black" points="1108,-36 905,-36 905,0 1108,0 1108,-36"/>
<text text-anchor="middle" x="1006.5" y="-13" font-family="Helvetica,sans-Serif" font-size="20.00">FromMapProjectable</text>
</g>
<!-- 7392063892404983478&#45;&gt;&#45;7232136002425492449 -->
<g id="edge24" class="edge">
<title>7392063892404983478&#45;&gt;&#45;7232136002425492449</title>
<path fill="none" stroke="black" d="M1006.5,-36.3C1006.5,-44.02 1006.5,-53.29 1006.5,-61.89"/>
<polygon fill="black" stroke="black" points="1003,-61.9 1006.5,-71.9 1010,-61.9 1003,-61.9"/>
</g>
<!-- 57828904863624685 -->
<g id="node19" class="node">
<title>57828904863624685</title>
<polygon fill="none" stroke="black" points="1657.5,-108 1235.5,-108 1235.5,-72 1657.5,-72 1657.5,-108"/>
<text text-anchor="middle" x="1446.5" y="-85" font-family="Helvetica,sans-Serif" font-size="20.00">ArrowStringConversion(FromMapProjectable)</text>
</g>
<!-- 57828904863624685&#45;&gt;572474094947503850 -->
<g id="edge21" class="edge">
<title>57828904863624685&#45;&gt;572474094947503850</title>
<path fill="none" stroke="black" d="M1339.43,-108.03C1274.22,-118.41 1190.85,-131.67 1123.86,-142.33"/>
<polygon fill="black" stroke="black" points="1123,-138.92 1113.67,-143.95 1124.1,-145.84 1123,-138.92"/>
</g>
<!-- 2595798314794697643 -->
<g id="node20" class="node">
<title>2595798314794697643</title>
<polygon fill="none" stroke="black" points="1548,-36 1345,-36 1345,0 1548,0 1548,-36"/>
<text text-anchor="middle" x="1446.5" y="-13" font-family="Helvetica,sans-Serif" font-size="20.00">FromMapProjectable</text>
</g>
<!-- 2595798314794697643&#45;&gt;57828904863624685 -->
<g id="edge25" class="edge">
<title>2595798314794697643&#45;&gt;57828904863624685</title>
<path fill="none" stroke="black" d="M1446.5,-36.3C1446.5,-44.02 1446.5,-53.29 1446.5,-61.89"/>
<polygon fill="black" stroke="black" points="1443,-61.9 1446.5,-71.9 1450,-61.9 1443,-61.9"/>
</g>
<!-- &#45;4462683872578895656 -->
<g id="node21" class="node">
<title>&#45;4462683872578895656</title>
<polygon fill="none" stroke="black" points="844,-468 653,-468 653,-432 844,-432 844,-468"/>
<text text-anchor="middle" x="748.5" y="-445" font-family="Helvetica,sans-Serif" font-size="20.00">And(And, Between)</text>
</g>
<!-- &#45;4462683872578895656&#45;&gt;8528174020740278175 -->
<g id="edge16" class="edge">
<title>&#45;4462683872578895656&#45;&gt;8528174020740278175</title>
<path fill="none" stroke="black" d="M748.5,-468.3C748.5,-476.02 748.5,-485.29 748.5,-493.89"/>
<polygon fill="black" stroke="black" points="745,-493.9 748.5,-503.9 752,-493.9 745,-493.9"/>
</g>
<!-- 5586607341701546718 -->
<g id="node22" class="node">
<title>5586607341701546718</title>
<polygon fill="none" stroke="black" points="749,-396 552,-396 552,-360 749,-360 749,-396"/>
<text text-anchor="middle" x="650.5" y="-373" font-family="Helvetica,sans-Serif" font-size="20.00">Between(Projection)</text>
</g>
<!-- 5586607341701546718&#45;&gt;&#45;4462683872578895656 -->
<g id="edge26" class="edge">
<title>5586607341701546718&#45;&gt;&#45;4462683872578895656</title>
<path fill="none" stroke="black" d="M674.47,-396.12C687.05,-405.11 702.63,-416.24 716.25,-425.97"/>
<polygon fill="black" stroke="black" points="714.26,-428.85 724.43,-431.81 718.33,-423.15 714.26,-428.85"/>
</g>
<!-- &#45;222441322721387894&#45;&gt;5586607341701546718 -->
<g id="edge28" class="edge">
<title>&#45;222441322721387894&#45;&gt;5586607341701546718</title>
<path fill="none" stroke="black" d="M650.5,-252.13C650.5,-276.33 650.5,-320.79 650.5,-349.61"/>
<polygon fill="black" stroke="black" points="647,-349.81 650.5,-359.81 654,-349.81 647,-349.81"/>
</g>
<!-- 2350916785265223230 -->
<g id="node24" class="node">
<title>2350916785265223230</title>
<polygon fill="none" stroke="black" points="1000,-396 767,-396 767,-360 1000,-360 1000,-396"/>
<text text-anchor="middle" x="883.5" y="-373" font-family="Helvetica,sans-Serif" font-size="20.00">And(Between, Between)</text>
</g>
<!-- 2350916785265223230&#45;&gt;&#45;4462683872578895656 -->
<g id="edge27" class="edge">
<title>2350916785265223230&#45;&gt;&#45;4462683872578895656</title>
<path fill="none" stroke="black" d="M850.48,-396.12C832.42,-405.49 809.85,-417.19 790.55,-427.2"/>
<polygon fill="black" stroke="black" points="788.92,-424.1 781.65,-431.81 792.14,-430.31 788.92,-424.1"/>
</g>
<!-- 1221941627406103929 -->
<g id="node25" class="node">
<title>1221941627406103929</title>
<polygon fill="none" stroke="black" points="1043,-324 846,-324 846,-288 1043,-288 1043,-324"/>
<text text-anchor="middle" x="944.5" y="-301" font-family="Helvetica,sans-Serif" font-size="20.00">Between(Projection)</text>
</g>
<!-- 1221941627406103929&#45;&gt;2350916785265223230 -->
<g id="edge30" class="edge">
<title>1221941627406103929&#45;&gt;2350916785265223230</title>
<path fill="none" stroke="black" d="M929.42,-324.3C922.11,-332.7 913.19,-342.93 905.16,-352.14"/>
<polygon fill="black" stroke="black" points="902.34,-350.06 898.41,-359.9 907.61,-354.66 902.34,-350.06"/>
</g>
<!-- &#45;7579396353947639050&#45;&gt;1221941627406103929 -->
<g id="edge32" class="edge">
<title>&#45;7579396353947639050&#45;&gt;1221941627406103929</title>
<path fill="none" stroke="black" d="M991.17,-252.3C983.74,-260.7 974.68,-270.93 966.52,-280.14"/>
<polygon fill="black" stroke="black" points="963.66,-278.09 959.65,-287.9 968.9,-282.73 963.66,-278.09"/>
</g>
<!-- 8583752711232451878 -->
<g id="node27" class="node">
<title>8583752711232451878</title>
<polygon fill="none" stroke="black" points="1328,-324 1131,-324 1131,-288 1328,-288 1328,-324"/>
<text text-anchor="middle" x="1229.5" y="-301" font-family="Helvetica,sans-Serif" font-size="20.00">Between(Projection)</text>
</g>
<!-- 8583752711232451878&#45;&gt;2350916785265223230 -->
<g id="edge31" class="edge">
<title>8583752711232451878&#45;&gt;2350916785265223230</title>
<path fill="none" stroke="black" d="M1145.3,-324.03C1094.66,-334.28 1030.08,-347.34 977.74,-357.93"/>
<polygon fill="black" stroke="black" points="976.88,-354.54 967.78,-359.95 978.27,-361.4 976.88,-354.54"/>
</g>
<!-- 270832407015445155&#45;&gt;8583752711232451878 -->
<g id="edge34" class="edge">
<title>270832407015445155&#45;&gt;8583752711232451878</title>
<path fill="none" stroke="black" d="M1327.7,-252.12C1310.39,-261.45 1288.78,-273.08 1270.24,-283.06"/>
<polygon fill="black" stroke="black" points="1268.57,-279.99 1261.42,-287.81 1271.89,-286.15 1268.57,-279.99"/>
</g>
<!-- 4798489896173112382&#45;&gt;6610490962812543686 -->
<g id="edge14" class="edge">
<title>4798489896173112382&#45;&gt;6610490962812543686</title>
<path fill="none" stroke="black" d="M1509.91,-396.06C1370.77,-435.24 1029.01,-531.47 880.87,-573.18"/>
<polygon fill="black" stroke="black" points="879.65,-569.89 870.97,-575.97 881.55,-576.63 879.65,-569.89"/>
</g>
<!-- &#45;4511348622518845563 -->
<g id="node30" class="node">
<title>&#45;4511348622518845563</title>
<polygon fill="none" stroke="black" points="679,-900 488,-900 488,-864 679,-864 679,-900"/>
<text text-anchor="middle" x="583.5" y="-877" font-family="Helvetica,sans-Serif" font-size="20.00">And(And, Between)</text>
</g>
<!-- &#45;4511348622518845563&#45;&gt;&#45;9069136742534482121 -->
<g id="edge11" class="edge">
<title>&#45;4511348622518845563&#45;&gt;&#45;9069136742534482121</title>
<path fill="none" stroke="black" d="M583.5,-900.3C583.5,-908.02 583.5,-917.29 583.5,-925.89"/>
<polygon fill="black" stroke="black" points="580,-925.9 583.5,-935.9 587,-925.9 580,-925.9"/>
</g>
<!-- 4473774598957117547 -->
<g id="node31" class="node">
<title>4473774598957117547</title>
<polygon fill="none" stroke="black" points="584,-828 387,-828 387,-792 584,-792 584,-828"/>
<text text-anchor="middle" x="485.5" y="-805" font-family="Helvetica,sans-Serif" font-size="20.00">Between(Projection)</text>
</g>
<!-- 4473774598957117547&#45;&gt;&#45;4511348622518845563 -->
<g id="edge37" class="edge">
<title>4473774598957117547&#45;&gt;&#45;4511348622518845563</title>
<path fill="none" stroke="black" d="M509.47,-828.12C522.05,-837.11 537.63,-848.24 551.25,-857.97"/>
<polygon fill="black" stroke="black" points="549.26,-860.85 559.43,-863.81 553.33,-855.15 549.26,-860.85"/>
</g>
<!-- &#45;8503631995537412086&#45;&gt;4473774598957117547 -->
<g id="edge39" class="edge">
<title>&#45;8503631995537412086&#45;&gt;4473774598957117547</title>
<path fill="none" stroke="black" d="M485.5,-684.13C485.5,-708.33 485.5,-752.79 485.5,-781.61"/>
<polygon fill="black" stroke="black" points="482,-781.81 485.5,-791.81 489,-781.81 482,-781.81"/>
</g>
<!-- &#45;2985013898029600307 -->
<g id="node33" class="node">
<title>&#45;2985013898029600307</title>
<polygon fill="none" stroke="black" points="835,-828 602,-828 602,-792 835,-792 835,-828"/>
<text text-anchor="middle" x="718.5" y="-805" font-family="Helvetica,sans-Serif" font-size="20.00">And(Between, Between)</text>
</g>
<!-- &#45;2985013898029600307&#45;&gt;&#45;4511348622518845563 -->
<g id="edge38" class="edge">
<title>&#45;2985013898029600307&#45;&gt;&#45;4511348622518845563</title>
<path fill="none" stroke="black" d="M685.48,-828.12C667.42,-837.49 644.85,-849.19 625.55,-859.2"/>
<polygon fill="black" stroke="black" points="623.92,-856.1 616.65,-863.81 627.14,-862.31 623.92,-856.1"/>
</g>
<!-- 4327338156108558221 -->
<g id="node34" class="node">
<title>4327338156108558221</title>
<polygon fill="none" stroke="black" points="863,-756 666,-756 666,-720 863,-720 863,-756"/>
<text text-anchor="middle" x="764.5" y="-733" font-family="Helvetica,sans-Serif" font-size="20.00">Between(Projection)</text>
</g>
<!-- 4327338156108558221&#45;&gt;&#45;2985013898029600307 -->
<g id="edge42" class="edge">
<title>4327338156108558221&#45;&gt;&#45;2985013898029600307</title>
<path fill="none" stroke="black" d="M753.13,-756.3C747.78,-764.44 741.3,-774.31 735.39,-783.3"/>
<polygon fill="black" stroke="black" points="732.31,-781.62 729.74,-791.9 738.16,-785.46 732.31,-781.62"/>
</g>
<!-- &#45;3339608063168815235&#45;&gt;4327338156108558221 -->
<g id="edge43" class="edge">
<title>&#45;3339608063168815235&#45;&gt;4327338156108558221</title>
<path fill="none" stroke="black" d="M799.13,-684.3C793.78,-692.44 787.3,-702.31 781.39,-711.3"/>
<polygon fill="black" stroke="black" points="778.31,-709.62 775.74,-719.9 784.16,-713.46 778.31,-709.62"/>
</g>
<!-- &#45;745353980136697895 -->
<g id="node36" class="node">
<title>&#45;745353980136697895</title>
<polygon fill="none" stroke="black" points="1132,-756 935,-756 935,-720 1132,-720 1132,-756"/>
<text text-anchor="middle" x="1033.5" y="-733" font-family="Helvetica,sans-Serif" font-size="20.00">Between(Projection)</text>
</g>
<!-- &#45;745353980136697895&#45;&gt;&#45;2985013898029600307 -->
<g id="edge41" class="edge">
<title>&#45;745353980136697895&#45;&gt;&#45;2985013898029600307</title>
<path fill="none" stroke="black" d="M956.85,-756.03C911.03,-766.22 852.68,-779.18 805.19,-789.74"/>
<polygon fill="black" stroke="black" points="804.23,-786.36 795.23,-791.95 805.75,-793.2 804.23,-786.36"/>
</g>
<!-- 6927402855711687705&#45;&gt;&#45;745353980136697895 -->
<g id="edge45" class="edge">
<title>6927402855711687705&#45;&gt;&#45;745353980136697895</title>
<path fill="none" stroke="black" d="M1109.04,-684.12C1096.2,-693.11 1080.3,-704.24 1066.41,-713.97"/>
<polygon fill="black" stroke="black" points="1064.24,-711.21 1058.06,-719.81 1068.26,-716.94 1064.24,-711.21"/>
</g>
<!-- 1267885505605124267&#45;&gt;&#45;1753380607972379727 -->
<g id="edge8" class="edge">
<title>1267885505605124267&#45;&gt;&#45;1753380607972379727</title>
<path fill="none" stroke="black" d="M1330.19,-828.06C1193.98,-867.24 859.41,-963.47 714.39,-1005.18"/>
<polygon fill="black" stroke="black" points="713.34,-1001.84 704.7,-1007.97 715.28,-1008.57 713.34,-1001.84"/>
</g>
<!-- &#45;5323603036133396500 -->
<g id="node39" class="node">
<title>&#45;5323603036133396500</title>
<polygon fill="none" stroke="black" points="998,-1188 801,-1188 801,-1152 998,-1152 998,-1188"/>
<text text-anchor="middle" x="899.5" y="-1165" font-family="Helvetica,sans-Serif" font-size="20.00">Between(Projection)</text>
</g>
<!-- &#45;5323603036133396500&#45;&gt;&#45;7505496213758287403 -->
<g id="edge5" class="edge">
<title>&#45;5323603036133396500&#45;&gt;&#45;7505496213758287403</title>
<path fill="none" stroke="black" d="M837.69,-1188.03C801.43,-1198.03 755.44,-1210.7 717.54,-1221.15"/>
<polygon fill="black" stroke="black" points="716.3,-1217.86 707.59,-1223.89 718.16,-1224.61 716.3,-1217.86"/>
</g>
<!-- &#45;5783607712576403818&#45;&gt;&#45;5323603036133396500 -->
<g id="edge48" class="edge">
<title>&#45;5783607712576403818&#45;&gt;&#45;5323603036133396500</title>
<path fill="none" stroke="black" d="M928.86,-1116.3C924.37,-1124.36 918.94,-1134.11 913.98,-1143.02"/>
<polygon fill="black" stroke="black" points="910.84,-1141.46 909.03,-1151.9 916.95,-1144.86 910.84,-1141.46"/>
</g>
</g>
</svg>
